<svg width="12" height="12" viewBox="0 0 12 12" fill="none" xmlns="http://www.w3.org/2000/svg">
<g opacity="0.598969">
<path d="M5.16501 8.54646H2.01465" stroke="black" stroke-width="1.5" stroke-linecap="round" stroke-linejoin="round"/>
<path d="M6.57031 3.70018H9.72067" stroke="black" stroke-width="1.5" stroke-linecap="round" stroke-linejoin="round"/>
<path fill-rule="evenodd" clip-rule="evenodd" d="M3.18157 2.5C2.52908 2.5 2 3.0253 2 3.67313C2 4.32095 2.52908 4.84625 3.18157 4.84625C3.83406 4.84625 4.36314 4.32095 4.36314 3.67313C4.36314 3.0253 3.83406 2.5 3.18157 2.5Z" stroke="black" stroke-width="1.5" stroke-linecap="round" stroke-linejoin="round"/>
<path fill-rule="evenodd" clip-rule="evenodd" d="M8.81894 7.35374C8.16604 7.35374 7.63696 7.87904 7.63696 8.52687C7.63696 9.1747 8.16604 9.7 8.81894 9.7C9.47143 9.7 10.0001 9.1747 10.0001 8.52687C10.0001 7.87904 9.47143 7.35374 8.81894 7.35374Z" stroke="black" stroke-width="1.5" stroke-linecap="round" stroke-linejoin="round"/>
</g>
</svg>
