<svg width="24" height="24" viewBox="0 0 24 24" fill="none" xmlns="http://www.w3.org/2000/svg">
<mask id="mask0_6_5663" style="mask-type:alpha" maskUnits="userSpaceOnUse" x="0" y="0" width="24" height="24">
<rect width="24" height="24" fill="white"/>
</mask>
<g mask="url(#mask0_6_5663)">
<path d="M3 3L21 21" stroke="black" stroke-width="1.5" stroke-linecap="round" stroke-linejoin="round"/>
<path d="M10.584 10.587C10.2087 10.9621 9.99775 11.4708 9.99756 12.0013C9.99737 12.5319 10.2079 13.0408 10.583 13.416C10.958 13.7913 11.4667 14.0023 11.9973 14.0024C12.5278 14.0026 13.0367 13.7921 13.412 13.417" stroke="black" stroke-width="1.5" stroke-linecap="round" stroke-linejoin="round"/>
<path d="M7.05301 7.27974L7.47402 7.90043L7.47402 7.90043L7.05301 7.27974ZM7.25268 6.23805L7.87337 5.81704L7.87337 5.81704L7.25268 6.23805ZM2.86833 12.0001L2.22411 11.6161C2.0831 11.8526 2.08307 12.1474 2.22403 12.384L2.86833 12.0001ZM16.9376 16.7273L17.357 17.3491L17.357 17.3491L16.9376 16.7273ZM17.9788 16.9297L18.6006 16.5103L18.6006 16.5103L17.9788 16.9297ZM17.7764 17.9709L17.357 17.3491L17.357 17.3491L17.7764 17.9709ZM1.34883 12.3722L0.697652 12.7443L0.697652 12.7443L1.34883 12.3722ZM1.34887 11.6279L2 12.0001L2 12.0001L1.34887 11.6279ZM6.21099 6.03837L5.78998 5.41769L5.78998 5.41769L6.21099 6.03837ZM9.56927 6.08614L9.363 5.36506L9.363 5.36506L9.56927 6.08614ZM11.9973 5.75005L11.9947 6.50005L11.996 6.50005L11.9973 5.75005ZM8.64192 5.57133L9.363 5.36506L9.363 5.36506L8.64192 5.57133ZM9.15672 4.64398L8.95045 3.92291L8.95045 3.92291L9.15672 4.64398ZM12.0013 4.25006L11.9988 5.00006L12.0012 5.00006L12.0013 4.25006ZM22.6512 11.6279L23.3023 11.2558L23.3023 11.2558L22.6512 11.6279ZM22.6511 12.3723L22 12.0001L22 12.0001L22.6511 12.3723ZM20.0478 15.9971L19.497 15.4881L19.497 15.4881L20.0478 15.9971ZM18.9879 16.0388L19.497 15.4881L19.497 15.4881L18.9879 16.0388ZM18.9462 14.979L18.3955 14.4699L18.3955 14.4699L18.9462 14.979ZM21.1317 12L21.7759 12.384C21.9169 12.1474 21.9169 11.8527 21.776 11.6161L21.1317 12ZM12 5.75006L11.9987 6.50006H12V5.75006ZM7.47402 7.90043C8.15961 7.43539 8.33841 6.50263 7.87337 5.81704L6.632 6.65906L6.632 6.65906L7.47402 7.90043ZM3.51256 12.3842C4.7454 10.316 6.07596 8.84873 7.47402 7.90043L6.632 6.65906C5.00586 7.76207 3.53655 9.41444 2.22411 11.6161L3.51256 12.3842ZM12 17.5001C8.80862 17.5001 5.96887 15.7386 3.51264 11.6162L2.22403 12.384C4.85335 16.7969 8.11403 19.0001 12 19.0001V17.5001ZM16.5183 16.1055C15.1308 17.0412 13.6381 17.5001 12 17.5001V19.0001C13.942 19.0001 15.726 18.4491 17.357 17.3491L16.5183 16.1055ZM18.6006 16.5103C18.1374 15.8235 17.2051 15.6422 16.5183 16.1055L17.357 17.3491L17.357 17.3491L18.6006 16.5103ZM18.1957 18.5927C18.8825 18.1294 19.0638 17.1972 18.6006 16.5103L17.357 17.3491L17.357 17.3491L18.1957 18.5927ZM12 20.5001C14.2459 20.5001 16.3212 19.8569 18.1957 18.5927L17.357 17.3491C15.726 18.4491 13.942 19.0001 12 19.0001V20.5001ZM0.697652 12.7443C3.52697 17.6953 7.27948 20.5001 12 20.5001V19.0001C8.0005 19.0001 4.66733 16.6676 2 12.0001L0.697652 12.7443ZM0.697736 11.2557C0.434118 11.7169 0.434086 12.2831 0.697652 12.7443L2 12.0001L2 12.0001L0.697736 11.2557ZM5.78998 5.41769C3.83021 6.747 2.14472 8.72425 0.697736 11.2557L2 12.0001C3.36901 9.60505 4.91301 7.82505 6.632 6.65906L5.78998 5.41769ZM7.87337 5.81704C7.40833 5.13145 6.47557 4.95265 5.78998 5.41769L6.632 6.65906L6.632 6.65906L7.87337 5.81704ZM9.77555 6.80721C10.4971 6.6008 11.2442 6.49739 11.9947 6.50005L12 5.00006C11.1082 4.9969 10.2204 5.11978 9.363 5.36506L9.77555 6.80721ZM7.92085 5.77761C8.14869 6.57409 8.97907 7.03506 9.77555 6.80721L9.363 5.36506L9.363 5.36506L7.92085 5.77761ZM8.95045 3.92291C8.15397 4.15075 7.693 4.98113 7.92085 5.77761L9.363 5.36506L9.363 5.36506L8.95045 3.92291ZM12.0039 3.50006C10.9712 3.49654 9.94328 3.63889 8.95045 3.92291L9.363 5.36506C10.22 5.11989 11.1074 4.99701 11.9988 5.00006L12.0039 3.50006ZM23.3023 11.2558C20.4733 6.30529 16.7213 3.50062 12.0014 3.50006L12.0012 5.00006C16.0002 5.00054 19.3329 7.33294 22 12.0001L23.3023 11.2558ZM23.3022 12.7445C23.5659 12.2833 23.5659 11.717 23.3023 11.2558L22 12.0001L22 12.0001L23.3022 12.7445ZM20.5985 16.5062C21.5801 15.4443 22.4787 14.1852 23.3022 12.7445L22 12.0001C21.222 13.3611 20.388 14.5241 19.497 15.4881L20.5985 16.5062ZM18.4789 16.5896C19.0872 17.1519 20.0362 17.1146 20.5985 16.5062L19.497 15.4881L19.497 15.4881L18.4789 16.5896ZM18.3955 14.4699C17.8332 15.0783 17.8705 16.0273 18.4789 16.5896L19.497 15.4881L19.497 15.4881L18.3955 14.4699ZM20.4874 11.616C19.8183 12.7386 19.1196 13.6865 18.3955 14.4699L19.497 15.4881C20.3032 14.6158 21.0625 13.5808 21.7759 12.384L20.4874 11.616ZM12 6.50006C15.1914 6.50006 18.0311 8.26149 20.4874 12.3839L21.776 11.6161C19.1467 7.20322 15.886 5.00006 12 5.00006V6.50006ZM11.996 6.50005L11.9987 6.50006L12.0013 5.00006L11.9987 5.00006L11.996 6.50005Z" fill="black"/>
</g>
</svg>
