<svg width="40" height="40" viewBox="0 0 40 40" fill="none" xmlns="http://www.w3.org/2000/svg">
<path fill-rule="evenodd" clip-rule="evenodd" d="M33.3916 34.2861H6.80469C3.64062 34.2861 2 32.6455 2 29.5254V14.1592C2 11.0391 3.64062 9.39844 6.80469 9.39844H10.7451C11.8877 9.39844 12.2686 9.19336 12.957 8.46094L14.1289 7.20117C14.8906 6.41016 15.6523 6 17.1465 6H22.9766C24.4707 6 25.2324 6.41016 25.9941 7.20117L27.166 8.46094C27.8691 9.20801 28.2354 9.39844 29.3779 9.39844H33.3916C36.5557 9.39844 38.1963 11.0391 38.1963 14.1592V29.5254C38.1963 32.6455 36.5557 34.2861 33.3916 34.2861ZM4.87109 29.2764C4.87109 30.6973 5.63281 31.415 6.98047 31.415H33.2305C34.5781 31.415 35.3252 30.6973 35.3252 29.2764V14.4082C35.3252 12.9873 34.5781 12.2695 33.2305 12.2695H28.543C27.2393 12.2695 26.5508 12.0352 25.8184 11.2295L24.6904 9.98438C23.8701 9.10547 23.4307 8.87109 22.1416 8.87109H17.9814C16.6924 8.87109 16.2529 9.10547 15.4326 9.99902L14.3047 11.2295C13.5723 12.0498 12.8838 12.2695 11.5801 12.2695H6.98047C5.63281 12.2695 4.87109 12.9873 4.87109 14.4082V29.2764ZM15.1104 16.5469C15.5938 17.1035 16.2676 17.1182 16.8975 16.6641C17.8643 15.917 18.8457 15.5361 20.1055 15.5361C22.7422 15.5361 24.9248 17.2793 25.5693 19.623H24.1338C23.4307 19.623 23.2402 20.3115 23.6504 20.8535L25.9355 23.9883C26.3311 24.5449 27.0342 24.5742 27.4443 23.9883L29.7148 20.8535C30.1104 20.2969 29.9346 19.623 29.2314 19.623H27.9131C27.21 15.8145 24.0752 13.1338 20.1055 13.1338C18.377 13.1338 16.6924 13.7197 15.5059 14.6719C14.7881 15.2285 14.627 15.9902 15.1104 16.5469ZM10.9209 22.333C10.2178 22.333 10.042 21.6592 10.4375 21.1172L12.708 17.9678C13.1182 17.3818 13.8213 17.4111 14.2168 17.9678L16.502 21.1172C16.9121 21.6592 16.7217 22.333 16.0186 22.333H14.6562C15.2861 24.6768 17.4834 26.4199 20.1201 26.4199C21.3799 26.4199 22.3467 26.0391 23.3135 25.292C23.958 24.8379 24.6318 24.8525 25.1152 25.4092C25.5986 25.9805 25.4375 26.7422 24.7197 27.2842C23.5332 28.251 21.8486 28.8223 20.1201 28.8223C16.165 28.8223 13.0156 26.1562 12.2979 22.333H10.9209Z" fill="black"/>
</svg>
