<svg width="16" height="16" viewBox="0 0 16 16" fill="none" xmlns="http://www.w3.org/2000/svg">
<mask id="mask0_0_7943" style="mask-type:alpha" maskUnits="userSpaceOnUse" x="0" y="0" width="16" height="16">
<rect width="16" height="16" fill="white"/>
</mask>
<g mask="url(#mask0_0_7943)">
<path d="M8.00157 2C4.69541 2 2 4.69544 2 8.00157C2 11.3077 4.69544 14 8.00157 14C11.3077 14 14 11.3077 14 8.00157C14 4.69544 11.3077 2 8.00157 2Z" stroke="#16A34A" stroke-width="1.2"/>
<path d="M7.98876 4.5C7.57124 4.50487 7.2379 4.79808 7.24387 5.1537V5.35341C6.38147 5.65437 5.86701 6.43069 6.03002 7.218C6.2386 8.14498 7.12285 8.59356 8.00058 8.62607C8.24143 8.62607 8.43465 8.76722 8.47646 8.9693C8.51828 9.17128 8.39047 9.35902 8.16413 9.42919C7.93782 9.49936 7.70028 9.42593 7.57988 9.24792C7.07542 8.50334 5.76401 9.14772 6.26846 9.89239C6.49577 10.2277 6.84528 10.4709 7.24387 10.6099V10.8305C7.20323 11.7232 8.79692 11.7232 8.75627 10.8305V10.6106C9.61669 10.3085 10.1329 9.52972 9.97013 8.74352C9.68902 7.85008 9.01309 7.33932 8.00054 7.33932C7.75969 7.33932 7.56153 7.19903 7.51972 6.99694C7.47791 6.79494 7.60672 6.60723 7.83303 6.53706C8.05934 6.46689 8.30083 6.54032 8.42124 6.7175C8.91213 7.50123 10.2823 6.82826 9.73168 6.07386C9.50469 5.739 9.15499 5.49555 8.75624 5.3564V5.15417C8.76234 4.79098 8.41511 4.49527 7.98869 4.50047L7.98876 4.5Z" fill="#16A34A"/>
</g>
</svg>
