<svg width="24" height="24" viewBox="0 0 24 24" fill="none" xmlns="http://www.w3.org/2000/svg">
<mask id="mask0_0_1523" style="mask-type:alpha" maskUnits="userSpaceOnUse" x="0" y="0" width="24" height="24">
<rect width="24" height="24" fill="white"/>
</mask>
<g mask="url(#mask0_0_1523)">
<path fill-rule="evenodd" clip-rule="evenodd" d="M12 11C9.79086 11 8 9.20914 8 7C8 4.79086 9.79086 3 12 3C14.2091 3 16 4.79086 16 7C16 9.20914 14.2091 11 12 11Z" stroke="#2969FF" stroke-width="1.5" stroke-linecap="round" stroke-linejoin="round"/>
<path d="M7.7019 16.7019L7.17157 16.1716H7.17157L7.7019 16.7019ZM6.64124 15.6412L7.17157 16.1716L6.64124 15.6412ZM17.3588 15.6412L16.8284 16.1716L16.8284 16.1716L17.3588 15.6412ZM16.2981 16.7019L16.8284 16.1716L16.8284 16.1716L16.2981 16.7019ZM8.23223 17.2322C8.70107 16.7634 9.33696 16.5 10 16.5V15C8.93913 15 7.92172 15.4214 7.17157 16.1716L8.23223 17.2322ZM7.5 19C7.5 18.337 7.76339 17.7011 8.23223 17.2322L7.17157 16.1716C6.42143 16.9217 6 17.9391 6 19H7.5ZM7.5 21V19H6V21H7.5ZM6 22.5C6.82843 22.5 7.5 21.8284 7.5 21H6V22.5ZM4.5 21C4.5 21.8284 5.17157 22.5 6 22.5V21H4.5ZM4.5 19V21H6V19H4.5ZM6.11091 15.1109C5.07946 16.1424 4.5 17.5413 4.5 19H6C6 17.9391 6.42143 16.9217 7.17157 16.1716L6.11091 15.1109ZM10 13.5C8.54131 13.5 7.14236 14.0795 6.11091 15.1109L7.17157 16.1716C7.92172 15.4214 8.93913 15 10 15V13.5ZM14 13.5H10V15H14V13.5ZM17.8891 15.1109C16.8576 14.0795 15.4587 13.5 14 13.5V15C15.0609 15 16.0783 15.4214 16.8284 16.1716L17.8891 15.1109ZM19.5 19C19.5 17.5413 18.9205 16.1424 17.8891 15.1109L16.8284 16.1716C17.5786 16.9217 18 17.9391 18 19H19.5ZM19.5 21V19H18V21H19.5ZM18 22.5C18.8284 22.5 19.5 21.8284 19.5 21H18V22.5ZM16.5 21C16.5 21.8284 17.1716 22.5 18 22.5V21H16.5ZM16.5 19V21H18V19H16.5ZM15.7678 17.2322C16.2366 17.7011 16.5 18.337 16.5 19H18C18 17.9391 17.5786 16.9217 16.8284 16.1716L15.7678 17.2322ZM14 16.5C14.663 16.5 15.2989 16.7634 15.7678 17.2322L16.8284 16.1716C16.0783 15.4214 15.0609 15 14 15V16.5ZM10 16.5H14V15H10V16.5ZM6 19.5C5.17157 19.5 4.5 20.1716 4.5 21H6V19.5ZM18 19.5H6V21H18V19.5ZM19.5 21C19.5 20.1716 18.8284 19.5 18 19.5V21H19.5ZM18 22.5C18.8284 22.5 19.5 21.8284 19.5 21H18V22.5ZM6 22.5H18V21H6V22.5ZM4.5 21C4.5 21.8284 5.17157 22.5 6 22.5V21H4.5Z" fill="#2969FF"/>
</g>
</svg>
