<svg width="24" height="24" viewBox="0 0 24 24" fill="none" xmlns="http://www.w3.org/2000/svg">
<mask id="mask0_0_3402" style="mask-type:alpha" maskUnits="userSpaceOnUse" x="0" y="0" width="24" height="24">
<rect y="24" width="24" height="24" transform="rotate(-90 0 24)" fill="white"/>
</mask>
<g mask="url(#mask0_0_3402)">
<path d="M8 9L6 9C5.46957 9 4.96086 9.21071 4.58579 9.58579C4.21071 9.96086 4 10.4696 4 11L4 18C4 18.5304 4.21071 19.0391 4.58579 19.4142C4.96086 19.7893 5.46957 20 6 20L18 20C18.5304 20 19.0391 19.7893 19.4142 19.4142C19.7893 19.0391 20 18.5304 20 18L20 11C20 10.4696 19.7893 9.96086 19.4142 9.58579C19.0391 9.21071 18.5304 9 18 9L16 9" stroke="black" stroke-width="1.5" stroke-linecap="round" stroke-linejoin="round"/>
<path d="M12.5303 1.46969L12 2.00002L12.5303 1.46969ZM11.4697 1.46969L12 2.00002L12 2.00002L11.4697 1.46969ZM15.5303 4.46969L15 5.00002L15 5.00002L15.5303 4.46969ZM15.5303 5.53035L15 5.00002L15 5.00002L15.5303 5.53035ZM14.4697 5.53035L15 5.00002L14.4697 5.53035ZM11.4697 2.53035L12 2.00002L12 2.00002L11.4697 2.53035ZM8.46967 4.46969L9 5.00002L9 5.00002L8.46967 4.46969ZM8.46967 5.53035L9 5.00002L9 5.00002L8.46967 5.53035ZM11.4697 1.46969L10.9393 0.939362L11.4697 1.46969ZM12.287 1.30711L12 2.00002L12 2.00002L12.287 1.30711ZM12.75 2.00002L12 2.00002L12.75 2.00002ZM12.75 16H13.5H12.75ZM11.25 16H10.5H11.25ZM11.25 3.81068H12C12 3.50733 11.8173 3.23386 11.537 3.11777C11.2568 3.00169 10.9342 3.06585 10.7197 3.28035L11.25 3.81068ZM9.53033 5.53035L9 5.00002H9L9.53033 5.53035ZM13.0607 0.939362C12.4749 0.353575 11.5251 0.353575 10.9393 0.939362L12 2.00002H12L13.0607 0.939362ZM16.0607 3.93936L13.0607 0.939362L12 2.00002L15 5.00002L16.0607 3.93936ZM16.0607 6.06068C16.6464 5.4749 16.6464 4.52515 16.0607 3.93936L15 5.00002V5.00002L16.0607 6.06068ZM13.9393 6.06068C14.5251 6.64647 15.4749 6.64647 16.0607 6.06068L15 5.00002L13.9393 6.06068ZM10.9393 3.06068L13.9393 6.06068L15 5.00002L12 2.00002L10.9393 3.06068ZM10.9393 0.939361C10.3536 1.52515 10.3536 2.4749 10.9393 3.06068L12 2.00002V2.00002L10.9393 0.939361ZM7.93934 3.93936C7.35355 4.52515 7.35355 5.4749 7.93934 6.06068L9 5.00002V5.00002L7.93934 3.93936ZM10.9393 0.939362L7.93934 3.93936L9 5.00002L12 2.00002L10.9393 0.939362ZM12.574 0.614203C12.0135 0.382031 11.3683 0.510365 10.9393 0.939362L12 2.00002L12 2.00002L12.574 0.614203ZM13.5 2.00002C13.5 1.39333 13.1345 0.846373 12.574 0.614202L12 2.00002L12 2.00002L13.5 2.00002ZM13.5 16L13.5 2.00002L12 2.00002L12 16H13.5ZM12 17.5C12.8284 17.5 13.5 16.8284 13.5 16H12V17.5ZM10.5 16C10.5 16.8284 11.1716 17.5 12 17.5V16H10.5ZM10.5 3.81068L10.5 16H12L12 3.81068L10.5 3.81068ZM10.0607 6.06068L11.7803 4.34101L10.7197 3.28035L9 5.00002L10.0607 6.06068ZM7.93934 6.06068C8.52513 6.64647 9.47487 6.64647 10.0607 6.06068L9 5.00002H9L7.93934 6.06068Z" fill="black"/>
</g>
</svg>
