<svg width="16" height="16" viewBox="0 0 16 16" fill="none" xmlns="http://www.w3.org/2000/svg">
<path fill-rule="evenodd" clip-rule="evenodd" d="M7.99986 14.6667C4.31796 14.6667 1.33319 11.6819 1.33319 8.00004C1.33319 4.31814 4.31796 1.33337 7.99986 1.33337C11.6818 1.33337 14.6665 4.31814 14.6665 8.00004C14.6665 11.6819 11.6818 14.6667 7.99986 14.6667Z" stroke="#6666FF" stroke-width="1.2" stroke-linecap="round" stroke-linejoin="round"/>
<path d="M5.33336 2H6.00002C4.70002 5.89333 4.70002 10.1067 6.00002 14H5.33336" stroke="#6666FF" stroke-width="1.2" stroke-linecap="round" stroke-linejoin="round"/>
<path d="M10 2C11.3 5.89333 11.3 10.1067 10 14" stroke="#6666FF" stroke-width="1.2" stroke-linecap="round" stroke-linejoin="round"/>
<path d="M2 10.6667V10C5.89333 11.3 10.1067 11.3 14 10V10.6667" stroke="#6666FF" stroke-width="1.2" stroke-linecap="round" stroke-linejoin="round"/>
<path d="M2 6.00002C5.89333 4.70002 10.1067 4.70002 14 6.00002" stroke="#6666FF" stroke-width="1.2" stroke-linecap="round" stroke-linejoin="round"/>
</svg>
