<svg width="24" height="24" viewBox="0 0 24 24" fill="none" xmlns="http://www.w3.org/2000/svg">
<rect x="5" y="3" width="14" height="18" rx="2" stroke="#38BDF8" stroke-width="1.5"/>
<path d="M15.25 14V13.25H14.5V14H15.25ZM16.75 14H17.5V13.25H16.75V14ZM12 18.75H11.25V19.5H12V18.75ZM12 17.25V16.5H11.25V17.25H12ZM8.75 10V10.75H9.5V10H8.75ZM7.25 10H6.5V10.75H7.25V10ZM12 5.25H12.75V4.5H12V5.25ZM12 6.75V7.5H12.75V6.75H12ZM14.5 14V17H16V14H14.5ZM16.75 13.25H15.25V14.75H16.75V13.25ZM17.5 17V14H16V17H17.5ZM15 19.5C16.3807 19.5 17.5 18.3807 17.5 17H16C16 17.5523 15.5523 18 15 18V19.5ZM12 19.5H15V18H12V19.5ZM11.25 17.25V18.75H12.75V17.25H11.25ZM15 16.5H12V18H15V16.5ZM14.5 17C14.5 16.7239 14.7239 16.5 15 16.5V18C15.5523 18 16 17.5523 16 17H14.5ZM9.5 7C9.5 7.27614 9.27614 7.5 9 7.5V6C8.44772 6 8 6.44772 8 7H9.5ZM9.5 10V7H8V10H9.5ZM7.25 10.75H8.75V9.25H7.25V10.75ZM6.5 7V10H8V7H6.5ZM9 4.5C7.61929 4.5 6.5 5.61929 6.5 7H8C8 6.44772 8.44772 6 9 6V4.5ZM12 4.5H9V6H12V4.5ZM12.75 6.75V5.25H11.25V6.75H12.75ZM9 7.5H12V6H9V7.5Z" fill="#38BDF8"/>
</svg>
