<svg width="24" height="24" viewBox="0 0 24 24" fill="none" xmlns="http://www.w3.org/2000/svg">
<path d="M7.87634 18.6466L7.87636 18.6466L7.87037 18.6422C5.99974 17.2817 4.85678 15.131 4.76156 12.8248L4.76165 12.8248L4.76098 12.8131C4.60396 10.0565 6.14792 7.33747 8.60875 5.88665C10.024 5.07176 11.5875 4.67008 13.227 4.76322L13.2483 4.76443H13.2696C13.3063 4.76443 13.3817 4.78312 13.4621 4.84166C13.4988 4.86838 13.524 4.89475 13.538 4.91321C13.5397 4.91536 13.541 4.91725 13.5422 4.91886L13.5484 4.94313L13.5656 4.98669C13.6312 5.15316 13.6064 5.27373 13.4781 5.39879C11.8563 6.98048 11.2528 9.1763 11.6425 11.3234L11.6452 11.3384L11.6485 11.3533C12.3596 14.5319 15.3973 16.678 18.7013 16.4115C18.9571 16.4176 19.111 16.5104 19.1966 16.6551L19.2153 16.6868L19.237 16.7164C19.2377 16.7174 19.2417 16.7228 19.2452 16.738C19.2491 16.7543 19.252 16.7809 19.2483 16.8175C19.2405 16.8961 19.2064 16.9805 19.1604 17.0403L19.1604 17.0402L19.1559 17.0462C18.0115 18.5652 16.2932 19.6844 14.4071 20.0919C13.8597 20.175 13.2881 20.25 12.7291 20.25C11.0057 20.25 9.27997 19.6888 7.87634 18.6466Z" stroke="#F2C724" stroke-width="1.5"/>
</svg>
