<svg width="24" height="24" viewBox="0 0 24 24" fill="none" xmlns="http://www.w3.org/2000/svg">
<path d="M19.519 15.5778L17.5424 13.6014C17.2318 13.2907 16.8187 13.1196 16.3793 13.1196C15.94 13.1196 15.5269 13.2907 15.2162 13.6014L14.5268 14.2907C14.1469 14.6707 13.5491 14.8088 12.8433 14.6797C12.0574 14.536 11.2551 14.0873 10.584 13.4163C9.91295 12.7453 9.46427 11.943 9.32059 11.1572C9.19151 10.4515 9.32969 9.8536 9.70963 9.47368L10.399 8.78439C10.7097 8.47371 10.8808 8.06061 10.8808 7.62128C10.8808 7.18194 10.7097 6.76889 10.399 6.4582L8.42249 4.48179C8.11179 4.17111 7.69872 4 7.25933 4C6.81997 4 6.4069 4.17111 6.0962 4.48179L5.40684 5.17112C4.76548 5.81242 4.33688 6.6345 4.13286 7.61454C3.94413 8.52143 3.95651 9.52032 4.16975 10.5834C4.59254 12.691 5.7946 14.8593 7.4678 16.5324C9.141 18.2055 11.3094 19.4076 13.4171 19.8303C13.9813 19.9434 14.5273 20 15.0511 20C15.5144 20 15.9605 19.9557 16.3861 19.8671C17.3662 19.6632 18.1883 19.2345 18.8296 18.5933L19.519 17.904C20.1603 17.2626 20.1603 16.2191 19.519 15.5778Z" stroke="#38BDF8" stroke-width="1.5"/>
</svg>
