<svg width="24" height="24" viewBox="0 0 24 24" fill="none" xmlns="http://www.w3.org/2000/svg">
<g opacity="0.40137">
<mask id="mask0_0_8921" style="mask-type:alpha" maskUnits="userSpaceOnUse" x="0" y="0" width="24" height="24">
<rect width="24" height="24" fill="white"/>
</mask>
<g mask="url(#mask0_0_8921)">
<path fill-rule="evenodd" clip-rule="evenodd" d="M12.0002 11.0833C9.97512 11.0833 8.3335 9.44171 8.3335 7.41667C8.3335 5.39162 9.97512 3.75 12.0002 3.75C14.0252 3.75 15.6668 5.39162 15.6668 7.41667C15.6668 9.44171 14.0252 11.0833 12.0002 11.0833Z" stroke="black" stroke-width="1.5" stroke-linecap="round" stroke-linejoin="round"/>
<path d="M7.04361 15.2936L7.57394 15.8239L7.04361 15.2936ZM16.9564 15.2936L16.4261 15.8239V15.8239L16.9564 15.2936ZM15.8957 16.3543L16.4261 15.8239L16.4261 15.8239L15.8957 16.3543ZM8.6346 16.8846C9.04093 16.4783 9.59203 16.25 10.1667 16.25V14.75C9.19421 14.75 8.26157 15.1363 7.57394 15.8239L8.6346 16.8846ZM8 18.4167C8 17.842 8.22827 17.2909 8.6346 16.8846L7.57394 15.8239C6.88631 16.5116 6.5 17.4442 6.5 18.4167H8ZM8 20.25V18.4167H6.5V20.25H8ZM6.5 21.75C7.32843 21.75 8 21.0784 8 20.25H6.5V21.75ZM5 20.25C5 21.0784 5.67157 21.75 6.5 21.75V20.25H5ZM5 18.4167V20.25H6.5V18.4167H5ZM6.51328 14.7633C5.54434 15.7322 5 17.0464 5 18.4167H6.5C6.5 17.4442 6.88631 16.5116 7.57394 15.8239L6.51328 14.7633ZM10.1667 13.25C8.79638 13.25 7.48222 13.7943 6.51328 14.7633L7.57394 15.8239C8.26157 15.1363 9.19421 14.75 10.1667 14.75V13.25ZM13.8333 13.25H10.1667V14.75H13.8333V13.25ZM17.4867 14.7633C16.5178 13.7943 15.2036 13.25 13.8333 13.25V14.75C14.8058 14.75 15.7384 15.1363 16.4261 15.8239L17.4867 14.7633ZM19 18.4167C19 17.0464 18.4557 15.7322 17.4867 14.7633L16.4261 15.8239C17.1137 16.5116 17.5 17.4442 17.5 18.4167H19ZM19 20.25V18.4167H17.5V20.25H19ZM17.5 21.75C18.3284 21.75 19 21.0784 19 20.25H17.5V21.75ZM16 20.25C16 21.0784 16.6716 21.75 17.5 21.75V20.25H16ZM16 18.4167V20.25H17.5V18.4167H16ZM15.3654 16.8846C15.7717 17.2909 16 17.842 16 18.4167H17.5C17.5 17.4442 17.1137 16.5116 16.4261 15.8239L15.3654 16.8846ZM13.8333 16.25C14.408 16.25 14.9591 16.4783 15.3654 16.8846L16.4261 15.8239C15.7384 15.1363 14.8058 14.75 13.8333 14.75V16.25ZM10.1667 16.25H13.8333V14.75H10.1667V16.25ZM6.5 18.75C5.67157 18.75 5 19.4216 5 20.25H6.5V18.75ZM17.5 18.75H6.5V20.25H17.5V18.75ZM19 20.25C19 19.4216 18.3284 18.75 17.5 18.75V20.25H19ZM17.5 21.75C18.3284 21.75 19 21.0784 19 20.25H17.5V21.75ZM6.5 21.75H17.5V20.25H6.5V21.75ZM5 20.25C5 21.0784 5.67157 21.75 6.5 21.75V20.25H5Z" fill="black"/>
</g>
</g>
</svg>
